<svg width="18" height="18" viewBox="0 0 18 18" fill="none" xmlns="http://www.w3.org/2000/svg">
<path d="M17.8207 5.35664C17.8207 5.35664 17.6449 4.11563 17.1035 3.5707C16.418 2.85352 15.6516 2.85 15.3 2.80781C12.7828 2.625 9.00352 2.625 9.00352 2.625H8.99648C8.99648 2.625 5.21719 2.625 2.7 2.80781C2.34844 2.85 1.58203 2.85352 0.896484 3.5707C0.355078 4.11563 0.182812 5.35664 0.182812 5.35664C0.182812 5.35664 0 6.81563 0 8.27109V9.63516C0 11.0906 0.179297 12.5496 0.179297 12.5496C0.179297 12.5496 0.355078 13.7906 0.892969 14.3355C1.57852 15.0527 2.47852 15.0281 2.8793 15.1055C4.3207 15.2426 9 15.2848 9 15.2848C9 15.2848 12.7828 15.2777 15.3 15.0984C15.6516 15.0563 16.418 15.0527 17.1035 14.3355C17.6449 13.7906 17.8207 12.5496 17.8207 12.5496C17.8207 12.5496 18 11.0941 18 9.63516V8.27109C18 6.81563 17.8207 5.35664 17.8207 5.35664ZM7.14023 11.291V6.23203L12.0023 8.77031L7.14023 11.291Z" fill="black"/>
</svg>
